<svg width="180" height="180" viewBox="0 0 180 180" fill="none" xmlns="http://www.w3.org/2000/svg">
<g clip-path="url(#clip0_392_2381)">
<path d="M122.498 39H59.6417C53.5298 39 48.5752 43.9547 48.5752 50.0665V136.933C48.5752 143.045 53.5298 148 59.6417 148H122.498C128.61 148 133.565 143.045 133.565 136.933V50.0665C133.565 43.9547 128.61 39 122.498 39Z" fill="black"/>
<path d="M125.647 87.4443H86.9373V93.4696H125.647V87.4443Z" fill="white"/>
<path d="M125.647 59.3467H86.9373V65.372H125.647V59.3467Z" fill="white"/>
<path d="M125.647 100.767H86.9373V106.792H125.647V100.767Z" fill="white"/>
<path d="M125.647 114.104H86.9373V120.129H125.647V114.104Z" fill="white"/>
<path d="M125.647 127.426H86.9373V133.452H125.647V127.426Z" fill="white"/>
<path d="M76.3702 87.4443H57.0076V93.4696H76.3702V87.4443Z" fill="white"/>
<path d="M76.3702 100.767H57.0076V106.792H76.3702V100.767Z" fill="white"/>
<path d="M76.3702 114.104H57.0076V120.129H76.3702V114.104Z" fill="white"/>
<path d="M76.3702 127.426H57.0076V133.452H76.3702V127.426Z" fill="white"/>
<path d="M67.3323 74.4097C73.9876 74.4097 79.3829 69.0145 79.3829 62.3591C79.3829 55.7038 73.9876 50.3086 67.3323 50.3086C60.677 50.3086 55.2817 55.7038 55.2817 62.3591C55.2817 69.0145 60.677 74.4097 67.3323 74.4097Z" fill="white"/>
</g>
<defs>
<clipPath id="clip0_392_2381">
<rect width="84.9897" height="109" fill="white" transform="translate(48.5752 39)"/>
</clipPath>
</defs>
</svg>
