<svg width="180" height="180" viewBox="0 0 180 180" fill="none" xmlns="http://www.w3.org/2000/svg">
<g clip-path="url(#clip0_392_2381)">
<path d="M120.889 42H59.7619C53.8183 42 49 46.8183 49 52.7619V137.238C49 143.182 53.8183 148 59.7619 148H120.889C126.832 148 131.651 143.182 131.651 137.238V52.7619C131.651 46.8183 126.832 42 120.889 42Z" fill="black"/>
<path d="M83.2734 126.138L89.442 128.007C89.0298 129.73 88.382 131.187 87.484 132.336C86.6006 133.499 85.4965 134.367 84.1715 134.956C82.8465 135.545 81.1681 135.84 79.1365 135.84C76.6631 135.84 74.6462 135.486 73.0709 134.765C71.4956 134.044 70.1559 132.777 69.0076 130.967C67.8592 129.156 67.2998 126.844 67.2998 124.018C67.2998 120.249 68.3009 117.363 70.3031 115.332C72.3054 113.315 75.1467 112.299 78.7979 112.299C81.6687 112.299 83.9212 112.873 85.5554 114.036C87.1895 115.199 88.4115 116.98 89.2065 119.38L82.9937 120.764C82.7729 120.072 82.552 119.557 82.3165 119.248C81.919 118.703 81.4479 118.291 80.8737 118.011C80.2995 117.717 79.6665 117.569 78.9598 117.569C77.3698 117.569 76.1479 118.217 75.294 119.498C74.6462 120.455 74.337 121.942 74.337 123.974C74.337 126.491 74.7198 128.228 75.4854 129.156C76.2509 130.098 77.3256 130.554 78.7095 130.554C80.0934 130.554 81.0651 130.172 81.757 129.421C82.449 128.67 82.9495 127.566 83.2587 126.123L83.2734 126.138Z" fill="white"/>
<path d="M90.6199 112.682H97.9663L103.09 129.067L108.154 112.682H115.294L106.844 135.442H99.2177L90.6199 112.682Z" fill="white"/>
<path d="M90.3547 75.2427C95.9244 75.2427 100.439 70.7276 100.439 65.158C100.439 59.5883 95.9244 55.0732 90.3547 55.0732C84.7851 55.0732 80.27 59.5883 80.27 65.158C80.27 70.7276 84.7851 75.2427 90.3547 75.2427Z" fill="white"/>
<path d="M71.687 100.698H109.037V81.8531L96.5823 77.937L90.3548 85.0478L83.774 77.937L71.687 81.4998V100.698Z" fill="white"/>
</g>
<defs>
<clipPath id="clip0_392_2381">
<rect width="82.6506" height="106" fill="white" transform="translate(49 42)"/>
</clipPath>
</defs>
</svg>
