<svg width="180" height="180" viewBox="0 0 180 180" fill="none" xmlns="http://www.w3.org/2000/svg">
<path d="M44.1665 45.4165H135.833V134.583H44.1665V45.4165Z" fill="url(#paint0_radial_392_2432)"/>
<path d="M44.1666 45.4166H135.834V134.583H44.1666V45.4166ZM40 138.75H140V41.25H40V138.75ZM103.25 81.75C102.625 81.4583 101.792 81.3334 100.792 81.3334C95.4167 81.3334 91.6667 85.4585 91.6667 92.3334C91.6667 100.167 95.5 103.333 100.292 103.333C101.333 103.333 102.417 103.208 103.25 102.833V81.75ZM101.042 74.9584C101.917 74.9584 102.417 74.9584 103.25 75.0417V63.9583C103.25 63.6667 103.458 63.5417 103.666 63.5417H110.417C110.75 63.5417 110.833 63.6667 110.833 63.875V102.834C110.833 104 110.833 105.459 111.041 107.042C111.041 107.333 110.958 107.375 110.667 107.542C107.083 109.25 103.292 110 99.75 110C90.5417 110 83.9582 104.292 83.9582 92.6669C83.9167 82.7083 90.5 74.9584 101.042 74.9584ZM76.5835 108.834C76.5835 109.25 76.5002 109.375 76.0418 109.375H69.6251C69.2085 109.375 69.0833 109.167 69.0833 108.834V64.0833C69.0833 63.6667 69.2917 63.5415 69.6251 63.5415H76.0834C76.4167 63.5415 76.5835 63.6665 76.5835 64.0417V108.834Z" fill="#FF408C"/>
<defs>
<radialGradient id="paint0_radial_392_2432" cx="0" cy="0" r="1" gradientUnits="userSpaceOnUse" gradientTransform="translate(74.3571 65.3989) scale(69.6668 67.4502)">
<stop stop-color="#4B2B36" stop-opacity="0.98"/>
<stop offset="1" stop-color="#250012"/>
</radialGradient>
</defs>
</svg>
