<svg width="133" height="133" viewBox="0 0 133 133" fill="none" xmlns="http://www.w3.org/2000/svg">
<g clip-path="url(#clip0_394_32)">
<path d="M66.5 0C29.7691 0 0 29.7691 0 66.5C0 103.231 29.7691 133 66.5 133C103.231 133 133 103.231 133 66.5C133 29.7691 103.231 0 66.5 0ZM98.0667 82.8081C75.3268 105.548 34.7099 98.2901 34.7099 98.2901C34.7099 98.2901 27.3793 57.7459 50.1919 34.9333C62.8321 22.2931 83.7796 22.8126 97.0173 35.9827C110.255 49.1477 110.707 70.1679 98.0667 82.8081ZM74.1319 38.9752L67.6222 52.3636L54.2339 58.8733L67.6222 65.383L74.1319 78.7713L80.6416 65.383L94.03 58.8733L80.6416 52.3636L74.1319 38.9752Z" fill="black"/>
</g>
<defs>
<clipPath id="clip0_394_32">
<rect width="133" height="133" fill="white"/>
</clipPath>
</defs>
</svg>
