<svg width="180" height="180" viewBox="0 0 180 180" fill="none" xmlns="http://www.w3.org/2000/svg">
<g clip-path="url(#clip0_392_3040)">
<path d="M92.8315 139C92.8315 138.288 92.8315 137.82 92.8315 137.351C92.8315 120.985 92.8194 104.62 92.8556 88.2535C92.858 87.1568 92.5177 86.5451 91.5571 86.0004C77.2826 77.9125 63.0324 69.7889 48.7748 61.6724C48.4297 61.4765 48.0942 61.2567 47.5801 60.9389C47.9904 60.6569 48.2776 60.4228 48.5986 60.2436C58.1543 54.8151 67.6835 49.3412 77.2851 43.9939C81.6369 41.5711 86.4763 40.8854 91.3978 41.0144C95.8148 41.1315 100.128 41.9438 104.041 44.1181C108.424 46.5528 112.756 49.0783 117.108 51.5632C123.063 54.9656 129.012 58.3799 134.981 61.7536C135.698 62.1598 135.988 62.6066 135.988 63.4357C135.961 75.6594 136.07 87.8855 135.918 100.109C135.86 104.728 134.052 108.964 131.648 112.894C128.971 117.269 125.389 120.696 120.837 123.211C111.991 128.102 103.23 133.141 94.4317 138.116C93.9828 138.369 93.5266 138.615 92.8315 138.998V139ZM104.041 119.757C104.772 119.386 105.272 119.159 105.745 118.889C108.257 117.468 110.833 116.142 113.258 114.586C120.342 110.042 124.402 103.524 124.757 95.2064C125.117 86.7817 124.839 78.3331 124.875 69.894C124.88 69.0267 124.586 68.5321 123.825 68.0996C117.304 64.4034 110.758 60.7382 104.311 56.9177C100.9 54.8963 97.3305 53.4938 93.3842 53.1139C88.581 52.6504 83.8913 53.0876 79.5587 55.3837C76.6889 56.9033 73.8963 58.5663 71.0747 60.1719C70.7175 60.375 70.3965 60.6354 69.9065 60.9747C71.3595 61.811 72.5784 62.5827 73.8673 63.2135C74.2752 63.4142 74.9679 63.419 75.3662 63.2087C77.4902 62.0834 79.5032 60.7358 81.6659 59.694C87.56 56.8555 93.6038 56.6859 99.3991 59.7514C106.025 63.2565 112.447 67.1391 118.976 70.8211C119.746 71.2559 120.007 71.7529 120.005 72.613C119.973 79.8981 120.12 87.1831 119.954 94.4633C119.792 101.591 116.514 107.086 110.318 110.797C108.53 111.867 106.681 112.837 104.893 113.908C104.531 114.123 104.096 114.569 104.074 114.93C103.983 116.431 104.036 117.941 104.036 119.752L104.041 119.757ZM104.036 99.8655C104.168 99.8942 104.299 99.9229 104.432 99.9515C106.659 96.8717 108.639 93.6509 108.776 89.7157C108.902 86.1413 108.781 82.5574 108.822 78.9782C108.832 78.1562 108.566 77.6832 107.832 77.2818C105.3 75.8984 102.865 74.3334 100.282 73.0551C98.3998 72.1232 96.3916 71.3372 94.3521 70.845C92.1677 70.3193 89.8796 70.1807 87.3187 70.8521C87.8762 71.1962 88.1948 71.4017 88.5207 71.5904C93.3504 74.3596 98.1729 77.1456 103.027 79.8789C103.797 80.3114 104.06 80.8036 104.055 81.6661C104.016 87.3145 104.036 92.9628 104.036 98.6088C104.036 99.0269 104.036 99.4474 104.036 99.8655Z" fill="#0060A3"/>
<path d="M45.024 65.2832C47.4063 66.6284 49.5617 67.8398 51.7123 69.0631C63.4258 75.7269 75.132 82.4002 86.8552 89.0449C87.6372 89.4869 88.0065 89.9552 88.0041 90.899C87.9752 106.587 87.9824 122.273 87.9824 137.961C87.9824 138.274 87.951 138.587 87.9245 139.12C87.4031 138.848 86.9952 138.652 86.6018 138.43C77.1957 133.066 67.7486 127.768 58.4005 122.307C52.9674 119.131 49.4579 114.266 47.1504 108.537C46.4384 106.771 45.9653 104.908 45.4005 103.084C45.3233 102.838 45.3474 102.561 45.3064 102.067C55.842 108.071 66.2039 113.975 76.8554 120.041C76.8554 118.123 76.9133 116.481 76.8071 114.854C76.7854 114.532 76.1796 114.185 75.7789 113.956C67.3214 109.115 58.8543 104.289 50.3896 99.4575C49.4869 98.9414 48.5866 98.423 47.5728 97.84C47.8504 97.6225 48.0314 97.4409 48.2486 97.3191C51.3912 95.5414 54.5507 93.7972 57.6716 91.9814C58.415 91.5489 58.9605 91.6397 59.6508 92.0363C64.8981 95.0564 70.1647 98.0502 75.4265 101.044C75.8272 101.273 76.2544 101.455 76.9061 101.775C76.9061 99.8733 76.9688 98.2151 76.8578 96.5665C76.8337 96.2033 76.2351 95.7947 75.8151 95.5558C65.9239 89.9098 56.0255 84.2711 46.1077 78.6729C45.2967 78.2142 44.9878 77.7339 44.9999 76.8092C45.0554 73.07 45.024 69.3307 45.024 65.2832Z" fill="#0060A3"/>
</g>
<defs>
<clipPath id="clip0_392_3040">
<rect width="91" height="98" fill="white" transform="translate(45 41)"/>
</clipPath>
</defs>
</svg>
