<svg width="105" height="113" viewBox="0 0 105 113" fill="none" xmlns="http://www.w3.org/2000/svg">
<g clip-path="url(#clip0_394_15)">
<path d="M55.1902 113C55.1902 112.179 55.1902 111.639 55.1902 111.099C55.1902 92.2273 55.1763 73.3581 55.2181 54.4862C55.2208 53.2217 54.8282 52.5164 53.7197 51.8882C37.2492 42.5625 20.8066 33.1954 4.35563 23.8366C3.95737 23.6107 3.57026 23.3572 2.97705 22.9908C3.4505 22.6657 3.78192 22.3957 4.15232 22.1891C15.1781 15.9297 26.1733 9.61794 37.252 3.4522C42.2734 0.658606 47.8573 -0.132085 53.5359 0.0166857C58.6325 0.151682 63.6093 1.08839 68.1237 3.59546C73.1813 6.40283 78.1804 9.31489 83.2017 12.1801C90.0723 16.1033 96.9373 20.0402 103.825 23.9303C104.652 24.3986 104.986 24.9138 104.986 25.8698C104.955 39.9645 105.081 54.062 104.905 68.1567C104.838 73.4821 102.752 78.3668 99.9785 82.8988C96.89 87.9432 92.757 91.8939 87.5045 94.795C77.2975 100.434 67.188 106.245 57.0367 111.981C56.5186 112.273 55.9923 112.557 55.1902 112.997V113ZM68.1237 90.8112C68.9676 90.3842 69.5441 90.1224 70.0899 89.8111C72.9891 88.1719 75.9607 86.6429 78.7596 84.8493C86.9336 79.6093 91.618 72.0936 92.0274 62.5033C92.4423 52.7891 92.1221 43.0474 92.1638 33.3166C92.1694 32.3166 91.8296 31.7463 90.9524 31.2476C83.4273 26.9856 75.8744 22.7594 68.4357 18.3541C64.5004 16.0234 60.3814 14.4062 55.828 13.9681C50.2858 13.4336 44.8746 13.9378 39.8755 16.5854C36.5641 18.3376 33.3419 20.2551 30.0862 22.1065C29.674 22.3406 29.3036 22.6409 28.7383 23.0321C30.4149 23.9964 31.8213 24.8863 33.3085 25.6136C33.7791 25.845 34.5784 25.8505 35.038 25.6081C37.4887 24.3105 39.8114 22.7566 42.3068 21.5554C49.1078 18.2825 56.0814 18.0869 62.7682 21.6216C70.413 25.6632 77.8239 30.1401 85.3573 34.3856C86.2457 34.887 86.5465 35.46 86.5437 36.4519C86.5075 44.8519 86.6774 53.252 86.4852 61.6465C86.2986 69.8648 82.5166 76.2013 75.3675 80.4799C73.3038 81.7141 71.1705 82.8327 69.1068 84.0669C68.6891 84.3149 68.1878 84.8301 68.1627 85.2461C68.0569 86.9762 68.1182 88.7174 68.1182 90.8057L68.1237 90.8112ZM68.1182 67.8756C68.2713 67.9087 68.4217 67.9418 68.5749 67.9748C71.1455 64.4236 73.4292 60.7098 73.5879 56.1723C73.7327 52.0508 73.5935 47.9183 73.6408 43.7912C73.652 42.8435 73.3456 42.298 72.499 41.8352C69.5775 40.24 66.7674 38.4355 63.7875 36.9615C61.6152 35.8871 59.2981 34.9807 56.9447 34.4131C54.4243 33.807 51.7841 33.6472 48.8293 34.4214C49.4726 34.8181 49.8402 35.0551 50.2162 35.2727C55.789 38.4658 61.3534 41.6781 66.954 44.8299C67.8424 45.3285 68.146 45.8961 68.1404 46.8906C68.0959 53.4035 68.1182 59.9164 68.1182 66.4265C68.1182 66.9086 68.1182 67.3935 68.1182 67.8756Z" fill="#0060A3"/>
<path d="M0.0277529 28C2.77655 29.5511 5.26355 30.9479 7.74498 32.3584C21.2606 40.0422 34.7678 47.737 48.2946 55.3987C49.1969 55.9084 49.623 56.4484 49.6202 57.5366C49.5868 75.6261 49.5951 93.7128 49.5951 111.802C49.5951 112.163 49.5589 112.524 49.5283 113.138C48.9267 112.824 48.4561 112.598 48.0021 112.342C37.149 106.157 26.2485 100.049 15.4622 93.7514C9.19318 90.0899 5.14379 84.4807 2.48134 77.8742C1.65976 75.8382 1.1139 73.6893 0.462213 71.5872C0.373093 71.3034 0.400943 70.9839 0.353598 70.4136C12.5101 77.3369 24.4661 84.1446 36.7563 91.1396C36.7563 88.9273 36.8231 87.0346 36.7006 85.1584C36.6755 84.7865 35.9765 84.387 35.5142 84.1226C25.7556 78.5409 15.9858 72.9757 6.2188 67.4051C5.17721 66.81 4.13841 66.2122 2.96871 65.5399C3.28899 65.2892 3.49786 65.0798 3.74851 64.9393C7.37458 62.8896 11.0201 60.8784 14.6211 58.7846C15.4789 58.286 16.1083 58.3907 16.9048 58.848C22.9594 62.3303 29.0363 65.7824 35.1076 69.2344C35.5699 69.4989 36.0628 69.7083 36.8148 70.0775C36.8148 67.8845 36.8872 65.9725 36.7591 64.0715C36.7312 63.6527 36.0406 63.1816 35.556 62.9061C24.1431 56.396 12.7218 49.8942 1.27822 43.4391C0.342458 42.9102 -0.014022 42.3564 -9.70357e-05 41.2902C0.0639579 36.9786 0.0277529 32.667 0.0277529 28Z" fill="#0060A3"/>
</g>
<defs>
<clipPath id="clip0_394_15">
<rect width="105" height="113" fill="white"/>
</clipPath>
</defs>
</svg>
