<svg width="180" height="180" viewBox="0 0 180 180" fill="none" xmlns="http://www.w3.org/2000/svg">
<path d="M134.088 40L126.055 129.99L89.9461 140L53.937 130.004L45.9126 40H134.088Z" fill="#264DE4"/>
<path d="M119.177 124.26L126.042 47.3594H90V132.349L119.177 124.26Z" fill="#2965F1"/>
<path d="M64.3086 80.7402L65.2979 91.7787H90.0002V80.7402H64.3086Z" fill="#EBEBEB"/>
<path d="M89.9998 58.3975H89.9617H62.3203L63.3238 69.4362H89.9998V58.3975Z" fill="#EBEBEB"/>
<path d="M90 120.893V109.408L89.9516 109.421L77.6579 106.102L76.872 97.2979H70.8982H65.791L67.3375 114.63L89.9492 120.907L90 120.893Z" fill="#EBEBEB"/>
<path d="M103.555 91.7783L102.273 106.094L89.9619 109.417V120.902L112.592 114.63L112.758 112.765L115.352 83.704L115.621 80.7398L117.614 58.3975H89.9619V69.4362H105.516L104.512 80.7398H89.9619V91.7783H103.555Z" fill="white"/>
</svg>
