<svg width="180" height="180" viewBox="0 0 180 180" fill="none" xmlns="http://www.w3.org/2000/svg">
<path d="M90.0002 41.2344C62.3894 41.2344 40 63.6199 40 91.2346C40 113.326 54.3266 132.068 74.1933 138.68C76.692 139.143 77.6096 137.595 77.6096 136.275C77.6096 135.082 77.563 131.143 77.5418 126.965C63.6313 129.99 60.6961 121.066 60.6961 121.066C58.4217 115.287 55.1446 113.75 55.1446 113.75C50.6083 110.647 55.4865 110.71 55.4865 110.71C60.5075 111.063 63.1513 115.863 63.1513 115.863C67.6108 123.507 74.8482 121.297 77.7014 120.02C78.15 116.788 79.4461 114.582 80.8758 113.334C69.7703 112.069 58.0954 107.782 58.0954 88.6233C58.0954 83.1647 60.0487 78.704 63.2474 75.2026C62.7282 73.943 61.0169 68.8577 63.7317 61.9705C63.7317 61.9705 67.9304 60.6266 77.4853 67.0958C81.4734 65.9876 85.7509 65.4323 90.0002 65.4135C94.2495 65.4323 98.5301 65.9876 102.526 67.0958C112.07 60.6266 116.262 61.9705 116.262 61.9705C118.984 68.8577 117.272 73.943 116.753 75.2026C119.958 78.704 121.898 83.1643 121.898 88.6233C121.898 107.827 110.201 112.056 99.0677 113.294C100.861 114.845 102.459 117.889 102.459 122.553C102.459 129.243 102.401 134.628 102.401 136.275C102.401 137.605 103.301 139.164 105.836 138.673C125.691 132.054 140 113.319 140 91.2346C140 63.6199 117.614 41.2344 90.0002 41.2344Z" fill="#161614"/>
<path d="M58.7269 112.461C58.6171 112.709 58.2257 112.783 57.8701 112.613C57.5073 112.45 57.3034 112.111 57.421 111.862C57.5289 111.606 57.9202 111.535 58.2822 111.707C58.6457 111.869 58.8528 112.211 58.7269 112.461ZM61.1864 114.655C60.948 114.876 60.4817 114.774 60.1653 114.424C59.8382 114.076 59.777 113.61 60.019 113.385C60.2649 113.164 60.717 113.267 61.0448 113.616C61.3719 113.969 61.4354 114.432 61.186 114.655L61.1864 114.655ZM62.8738 117.463C62.5672 117.676 62.066 117.476 61.7566 117.031C61.4503 116.587 61.4503 116.054 61.7633 115.84C62.0738 115.626 62.5672 115.819 62.8809 116.26C63.1867 116.712 63.1867 117.245 62.8734 117.463L62.8738 117.463ZM65.727 120.715C65.4529 121.017 64.8694 120.936 64.442 120.524C64.0051 120.12 63.8832 119.548 64.1581 119.246C64.4353 118.943 65.0224 119.028 65.4529 119.437C65.887 119.84 66.0196 120.416 65.7274 120.715H65.727ZM69.4148 121.813C69.2944 122.204 68.732 122.382 68.1658 122.216C67.6003 122.045 67.2301 121.586 67.3442 121.19C67.4619 120.796 68.0266 120.611 68.5971 120.789C69.1618 120.959 69.5328 121.414 69.4152 121.813H69.4148ZM73.6123 122.278C73.6264 122.691 73.146 123.033 72.5515 123.04C71.9535 123.053 71.47 122.72 71.4637 122.314C71.4637 121.898 71.9331 121.559 72.5307 121.549C73.1252 121.537 73.6123 121.869 73.6123 122.278ZM77.7353 122.12C77.8066 122.523 77.3933 122.936 76.8031 123.046C76.2228 123.152 75.6855 122.903 75.6114 122.505C75.5393 122.092 75.9604 121.679 76.5396 121.572C77.131 121.469 77.66 121.711 77.7353 122.12Z" fill="#161614"/>
</svg>
