<svg width="180" height="180" viewBox="0 0 180 180" fill="none" xmlns="http://www.w3.org/2000/svg">
<g clip-path="url(#clip0_392_2374)">
<path fill-rule="evenodd" clip-rule="evenodd" d="M54.8889 139H131.111C137.127 139 142 134.127 142 128.111V51.8889C142 45.8728 137.127 41 131.111 41H54.8889C48.8728 41 44 45.8728 44 51.8889V128.111C44 134.127 48.8728 139 54.8889 139Z" fill="black"/>
<path fill-rule="evenodd" clip-rule="evenodd" d="M128.389 125.389H113.852V100.617C113.852 93.8249 111.266 90.0274 105.903 90.0274C100.051 90.0274 97.0016 93.9746 97.0016 100.617V125.389H82.9822V78.1993H97.0016V84.5557C97.0016 84.5557 101.221 76.7565 111.225 76.7565C121.229 76.7565 128.402 82.8679 128.402 95.5127V125.389H128.389ZM66.2541 72.0199C61.4766 72.0199 57.6111 68.1271 57.6111 63.3088C57.6111 58.4904 61.4766 54.5977 66.2541 54.5977C71.0316 54.5977 74.8972 58.4904 74.8972 63.3088C74.8972 68.1271 71.0316 72.0199 66.2541 72.0199ZM59.013 125.389H73.6314V78.1993H59.013V125.389Z" fill="white"/>
</g>
<defs>
<clipPath id="clip0_392_2374">
<rect width="98" height="98" fill="white" transform="translate(44 41)"/>
</clipPath>
</defs>
</svg>
