<svg width="180" height="180" viewBox="0 0 180 180" fill="none" xmlns="http://www.w3.org/2000/svg">
<g clip-path="url(#clip0_392_3103)">
<path d="M90 41C62.9352 41 41 62.9352 41 90C41 117.065 62.9352 139 90 139C117.065 139 139 117.065 139 90C139 62.9352 117.065 41 90 41ZM113.26 102.016C96.504 118.772 66.5757 113.424 66.5757 113.424C66.5757 113.424 61.1742 83.5496 77.9835 66.7403C87.2973 57.4265 102.732 57.8093 112.486 67.5136C122.24 77.2141 122.574 92.7027 113.26 102.016ZM95.6235 69.7186L90.8269 79.5837L80.9618 84.3803L90.8269 89.177L95.6235 99.042L100.42 89.177L110.285 84.3803L100.42 79.5837L95.6235 69.7186Z" fill="black"/>
</g>
<defs>
<clipPath id="clip0_392_3103">
<rect width="98" height="98" fill="white" transform="translate(41 41)"/>
</clipPath>
</defs>
</svg>
